# xmcd
# 
# Track frame offsets:
#     150
#     18606
#     37062
#     50318
#     65523
#     78830
#     96536
#     116642
#     134497
#     150853
#     165708
#     182015
#     198220
#     212229
#     229327
#     246733
#     264768
#     283555
#     301860
#     317969
#     335975
# 
# Disc length: 4693
# 
# Revision: 0
# Processed by: cddbd v1.5.2PL0 Copyright (c) Steve Scherf et al.
# Submitted via: BonkEnc v1.0.5
# 
DISCID=36125315
DTITLE=Shania Twain - Greatest Hits
DYEAR=2004
DGENRE=Pop
TTITLE0=Shania Twain - Forever and for always
TTITLE1=I'm gonna getcha good!
TTITLE2=Up!
TTITLE3=Ka-Ching!
TTITLE4=Come on over
TTITLE5=Man! I feel like a woman
TTITLE6=That don't impress me much
TTITLE7=From this moment on
TTITLE8=Honey, I'm home
TTITLE9=You're still the one
TTITLE10=Don't be stupid (You know I love you)
TTITLE11=Love gets me every time
TTITLE12=No one needs to know
TTITLE13=You win my love
TTITLE14=(If you're not in it for love) I'm outta here!
TTITLE15=The woman in me (need the man in you)
TTITLE16=Any man of mine
TTITLE17=Whose red have your boots been under
TTITLE18=Party for two (with Mark McGrath)
TTITLE19=Don't
TTITLE20=I ain't no quitter
EXTD=YEAR: 2004
EXTT0=
EXTT1=
EXTT2=
EXTT3=
EXTT4=
EXTT5=
EXTT6=
EXTT7=
EXTT8=
EXTT9=
EXTT10=
EXTT11=
EXTT12=
EXTT13=
EXTT14=
EXTT15=
EXTT16=
EXTT17=
EXTT18=
EXTT19=
EXTT20=
PLAYORDER=
